<?xml version="1.0" encoding="utf-8"?>
<!-- Generator: Adobe Illustrator 19.0.0, SVG Export Plug-In . SVG Version: 6.00 Build 0)  -->
<svg version="1.1" id="Layer_1" xmlns="http://www.w3.org/2000/svg" xmlns:xlink="http://www.w3.org/1999/xlink" x="0px" y="0px"
	 viewBox="0 0 550 120" style="enable-background:new 0 0 550 120;" xml:space="preserve">
<style type="text/css">
	.st0{clip-path:url(#SVGID_2_);}
</style>
<g>
	<polygon points="70.5,0 45.6,45.9 21.2,0 0,0 36.4,63.3 36.4,117.8 54.9,117.8 54.9,63.3 91.2,0 	"/>
	<g>
		<defs>
			<rect id="SVGID_1_" x="0" width="550" height="120"/>
		</defs>
		<clipPath id="SVGID_2_">
			<use xlink:href="#SVGID_1_"  style="overflow:visible;"/>
		</clipPath>
		<path class="st0" d="M145,74.6V0h18.7v74.4c0,17.3,9.4,28.3,26.9,28.3c17.3,0,26.9-11.1,26.9-28.4V0h18.5v74.4
			c0,26.8-16.8,45.6-45.4,45.6C161.2,120,145,101.8,145,74.6"/>
		<polygon class="st0" points="298.6,0 317.5,0 375.2,88.5 375.2,0 393.6,0 393.6,117.8 375,117.8 317.1,29.8 317.1,117.8 
			298.6,117.8 		"/>
		<polygon class="st0" points="497.5,20.2 463.7,117.8 444.8,117.8 487.7,0 507.1,0 550,117.8 531.2,117.8 		"/>
	</g>
</g>
</svg>
