<?xml version="1.0" encoding="utf-8"?>
<!-- Generator: Adobe Illustrator 19.0.0, SVG Export Plug-In . SVG Version: 6.00 Build 0)  -->
<svg version="1.1" id="Layer_1" xmlns="http://www.w3.org/2000/svg" xmlns:xlink="http://www.w3.org/1999/xlink" x="0px" y="0px"
	 viewBox="0 0 360 360" style="enable-background:new 0 0 360 360;" xml:space="preserve">
<style type="text/css">
	.st0{clip-path:url(#SVGID_2_);fill:#FFFFFF;}
</style>
<g>
	<defs>
		<rect id="SVGID_1_" width="360" height="360"/>
	</defs>
	<clipPath id="SVGID_2_">
		<use xlink:href="#SVGID_1_"  style="overflow:visible;"/>
	</clipPath>
	<path class="st0" d="M121.3,220.7c20.9-12.6,37.4-30.1,42.8-52.8c1.5-6.3,2.6-13.1,2.6-19.6V3c0-1.8-1.5-3.2-3.3-3
		c-15.6,1.5-30.6,5-44.7,10.2c-1.2,0.4-2,1.6-2,2.8v91.2c0,6.5-1.1,13.3-2.6,19.6c-5.4,22.8-20.7,40.2-41.7,52.8
		c-6.8,4.1-11.2,11.1-11.2,19c0,9.2,7,15.7,14.4,21c9.3,6.7,17.5,13.2,24.4,22.1c3.6,4.6,6.6,9.5,9.1,14.6c5,10.4,7.5,22.2,7.5,33.6
		v21.1V347c0,1.3,0.8,2.4,2,2.8c14.2,5.2,29.2,8.7,44.7,10.2c1.8,0.2,3.3-1.2,3.3-3c0-3.9,0-6.7,0-7.9c0-18.8-0.4-40-10.6-57.3
		c-4.7-8-11.2-15.2-18.5-21.4c-6.7-5.7-16.3-9.9-22-16.4c-2.2-2.5-3.9-5.4-4.8-8.6c-0.5-1.8-0.8-3.8-0.8-5.7
		C110.1,231.9,114.5,224.8,121.3,220.7"/>
	<path class="st0" d="M220.3,3.5c-1.9-0.4-3.7,1-3.7,2.9v188.8c0,6.5-1.1,13.3-2.6,19.6c-5.4,22.8-20.7,40.2-41.7,52.8
		c-6.8,4.1-11.2,11.1-11.2,19c0,9.2,7,15.7,14.4,21c9.3,6.7,17.5,13.2,24.4,22.1c3.6,4.6,6.6,9.5,9.1,14.6c1.7,3.5,3,7.1,4.1,10.8
		c0.4,1.5,2,2.4,3.5,2.1c13.8-2.8,27.1-7.1,39.5-12.9c1.5-0.7,2.2-2.5,1.5-4c-0.5-1.1-1.1-2.2-1.7-3.2c-4.7-8-11.2-15.2-18.5-21.4
		c-6.7-5.7-16.3-9.9-22-16.4c-2.2-2.5-3.9-5.5-4.8-8.6c-0.5-1.8-0.8-3.8-0.8-5.7c0-7.9,4.7-14.5,11.2-19
		c21.3-14.7,37.4-30.1,42.8-52.8c1.5-6.3,2.6-13.1,2.6-19.6V22.6c0-1.1-0.6-2.1-1.6-2.7C251.1,12.6,236.1,7,220.3,3.5"/>
	<path class="st0" d="M350.4,243.1c0.5-1.3,0.2-2.8-0.6-3.9c-7.6-9.4-17.4-17.4-28.4-24.1c-6.8-4.1-11.2-11.1-11.2-19
		c0-1.9,0.3-3.8,0.8-5.7c0.8-3.1,2.6-6.1,4.8-8.6c5.7-6.5,15.2-10.7,22-16.4c5.2-4.4,10.1-9.4,14.3-15c3.9-5.3,5.1-12,3.4-18.4
		c-6.9-25-18.9-47.9-35-67.4c-1.2-1.5-3.6-0.6-3.6,1.3v61.6c0,7,0,14.1,0,21.1c-0.1,11.4-2.6,23.2-7.5,33.6
		c-2.5,5.1-5.5,10.1-9.1,14.6c-6.9,8.9-16.2,15.5-25.6,22.1c-7.4,5.3-14.4,11.9-14.4,21c0,7.9,4.4,14.9,11.2,19
		c17.7,10.6,32.1,24.7,39.5,42.5c0.6,1.4,2.3,1.6,3.3,0.6C329.7,285.2,342.1,265.2,350.4,243.1"/>
	<path class="st0" d="M21.3,129.8C42.2,117.2,58.7,99.7,64.1,77c1.5-6.3,2.6-13.1,2.6-19.6V44.1c0-1.7-2-2.6-3.3-1.5
		C33.6,68.1,12.3,103.1,4,142.8c-1,4.8-0.2,9.8,2.2,14.1c1.1,1.8,2.1,3.7,3,5.6c5,10.4,7.5,22.2,7.5,33.6c0,7,0,14.1,0,21.1v37.6
		c0,0.6,0.1,1.2,0.4,1.7c11,23.5,26.9,44.2,46.3,60.9c1.3,1.1,3.3,0.2,3.3-1.5c0-31.4,0-54.1,0-57.8c0-18.8-0.4-40-10.6-57.3
		c-4.7-8-11.2-15.2-18.5-21.4c-6.7-5.7-16.3-9.9-22-16.4c-2.2-2.5-3.9-5.5-4.8-8.6c-0.5-1.8-0.8-3.8-0.8-5.7
		C10.1,140.9,14.5,133.9,21.3,129.8"/>
</g>
</svg>
